<?xml version="1.0" standalone="no"?>
<!DOCTYPE svg PUBLIC "-//W3C//DTD SVG 20010904//EN"
 "http://www.w3.org/TR/2001/REC-SVG-20010904/DTD/svg10.dtd">
<svg version="1.0" xmlns="http://www.w3.org/2000/svg"
 width="1903.000000pt" height="1500.000000pt" viewBox="0 0 1903.000000 1500.000000"
 preserveAspectRatio="xMidYMid meet">

<g transform="translate(0.000000,1500.000000) scale(0.100000,-0.100000)"
fill="#000000" stroke="none">
<path d="M9553 8596 c-181 -35 -305 -98 -424 -216 -133 -132 -198 -268 -220
-466 -59 -531 354 -910 922 -845 179 20 448 109 492 162 15 19 17 50 17 310 0
275 -1 289 -19 299 -11 6 -90 10 -184 10 -145 0 -166 -2 -180 -18 -14 -15 -17
-48 -19 -188 l-3 -169 -36 -18 c-54 -26 -179 -39 -258 -26 -80 12 -169 58
-217 112 -20 22 -50 69 -68 106 -29 62 -31 72 -31 181 1 141 22 203 95 283
138 151 391 167 642 41 39 -20 74 -31 84 -27 15 6 123 163 159 232 21 42 10
61 -64 105 -149 91 -303 135 -491 141 -81 3 -150 0 -197 -9z"/>
<path d="M4350 7835 l0 -766 398 3 c377 4 400 5 462 26 216 73 356 252 416
532 26 123 24 354 -3 475 -48 207 -148 351 -295 426 -119 60 -136 62 -575 67
l-403 4 0 -767z m785 467 c132 -61 184 -188 185 -448 0 -254 -75 -421 -219
-488 -41 -19 -67 -21 -243 -24 l-198 -4 0 497 0 497 213 -4 c196 -3 216 -5
262 -26z"/>
<path d="M5880 7835 l0 -765 160 0 160 0 0 270 0 270 198 0 c275 0 372 18 480
90 105 70 157 181 169 355 19 295 -104 476 -360 529 -61 13 -148 16 -442 16
l-365 0 0 -765z m723 479 c88 -30 133 -111 125 -229 -6 -103 -57 -170 -147
-195 -20 -5 -114 -10 -208 -10 l-173 0 0 225 0 225 178 0 c137 0 189 -4 225
-16z"/>
<path d="M7290 7835 l0 -765 160 0 160 0 0 270 0 270 198 0 c275 0 372 18 480
90 105 70 157 181 169 355 19 295 -104 476 -360 529 -61 13 -148 16 -442 16
l-365 0 0 -765z m723 479 c88 -30 133 -111 125 -229 -6 -103 -57 -170 -147
-195 -20 -5 -114 -10 -208 -10 l-173 0 0 225 0 225 178 0 c137 0 189 -4 225
-16z"/>
<path d="M10943 8585 c-146 -32 -266 -123 -323 -247 -57 -123 -60 -166 -60
-738 l0 -520 175 0 175 0 0 175 0 175 205 0 205 0 0 -175 0 -175 176 0 175 0
-3 548 c-4 485 -6 554 -21 607 -59 200 -173 310 -362 350 -86 18 -259 18 -342
0z m282 -358 c24 -14 50 -40 65 -67 23 -42 25 -56 28 -212 l4 -168 -206 0
-206 0 0 154 c0 157 7 198 43 250 46 66 191 89 272 43z"/>
<path d="M11840 7840 l0 -760 175 0 175 0 0 235 0 236 118 -3 117 -3 70 -232
70 -233 192 0 192 0 -38 108 c-22 59 -66 181 -99 272 l-61 165 22 15 c128 89
186 250 174 480 -12 212 -86 349 -231 422 -103 52 -156 58 -533 58 l-343 0 0
-760z m680 392 c73 -38 102 -158 60 -250 -31 -68 -72 -82 -247 -82 l-143 0 0
175 0 175 148 0 c123 0 153 -3 182 -18z"/>
<path d="M13110 7840 l0 -760 175 0 175 0 0 760 0 760 -175 0 -175 0 0 -760z"/>
<path d="M13951 8589 c-66 -13 -163 -62 -204 -103 -84 -84 -122 -211 -114
-386 9 -217 88 -342 255 -402 45 -16 93 -22 221 -27 l163 -7 29 -32 c52 -58
34 -168 -32 -191 -21 -7 -140 -11 -337 -11 l-305 0 6 -52 c3 -29 11 -108 18
-176 l12 -124 341 4 c320 4 345 6 408 26 172 57 254 184 265 407 10 197 -47
346 -161 422 -79 54 -161 74 -331 80 -147 6 -150 7 -177 34 -24 23 -28 36 -28
84 0 49 4 60 29 86 l29 29 293 0 292 0 -6 53 c-3 28 -11 107 -18 175 l-12 122
-296 -1 c-163 -1 -316 -5 -340 -10z"/>
<path d="M1620 6595 c-210 -59 -312 -274 -226 -479 43 -102 169 -183 299 -193
117 -8 301 45 313 91 2 11 3 73 2 136 l-3 115 -85 0 -85 0 -3 -80 c-2 -48 -8
-82 -15 -87 -6 -4 -34 -10 -62 -13 -63 -8 -123 14 -164 61 -74 83 -43 239 55
280 52 22 150 17 217 -10 l58 -24 23 32 c13 17 31 46 40 63 l17 33 -33 20
c-99 61 -245 84 -348 55z"/>
<path d="M2285 6601 c-72 -18 -122 -59 -152 -126 -15 -34 -18 -78 -21 -292
l-4 -253 81 0 81 0 0 80 0 80 90 0 90 0 0 -80 0 -80 81 0 81 0 -4 253 c-3 251
-3 252 -30 307 -16 32 -41 64 -60 77 -56 37 -158 52 -233 34z m144 -177 c17
-22 21 -41 21 -105 l0 -79 -90 0 -90 0 0 80 c0 73 3 83 25 105 35 36 105 35
134 -1z"/>
<path d="M2680 6270 l0 -340 80 0 80 0 0 105 0 105 53 0 52 0 30 -103 30 -102
87 -3 86 -3 -44 123 -45 122 25 20 c54 46 77 150 56 252 -10 47 -21 67 -54
100 -53 53 -102 64 -291 64 l-145 0 0 -340z m324 158 c9 -12 16 -39 16 -59 0
-53 -25 -71 -110 -77 l-70 -5 0 82 0 81 74 0 c66 0 77 -3 90 -22z"/>
<path d="M3250 6270 l0 -342 133 4 c161 6 224 26 285 92 55 59 76 128 76 246
0 125 -21 188 -83 250 -65 65 -116 81 -278 87 l-133 6 0 -343z m278 152 c42
-31 62 -79 62 -154 0 -105 -46 -165 -134 -175 l-46 -6 0 183 0 183 44 -5 c24
-3 58 -15 74 -26z"/>
<path d="M3995 6601 c-72 -18 -122 -59 -152 -126 -15 -34 -18 -78 -21 -292
l-4 -253 81 0 81 0 0 80 0 80 90 0 90 0 0 -80 0 -80 81 0 81 0 -4 253 c-3 251
-3 252 -30 307 -16 32 -41 64 -60 77 -56 37 -158 52 -233 34z m144 -177 c17
-22 21 -41 21 -105 l0 -79 -90 0 -90 0 0 80 c0 73 3 83 25 105 35 36 105 35
134 -1z"/>
<path d="M4630 6270 l0 -340 80 0 80 0 0 105 0 105 53 0 52 0 30 -103 30 -102
87 -3 86 -3 -44 123 -45 122 25 20 c54 46 77 150 56 252 -10 47 -21 67 -54
100 -53 53 -102 64 -291 64 l-145 0 0 -340z m324 158 c9 -12 16 -39 16 -59 0
-53 -25 -71 -110 -77 l-70 -5 0 82 0 81 74 0 c66 0 77 -3 90 -22z"/>
<path d="M5200 6270 l0 -340 200 0 c228 0 203 -12 214 103 l6 57 -130 0 -130
0 0 50 0 50 105 0 105 0 0 80 0 80 -105 0 -105 0 0 50 0 50 130 0 130 0 -6 58
c-11 114 14 102 -214 102 l-200 0 0 -340z"/>
<path d="M5690 6270 l0 -340 200 0 c228 0 203 -12 214 103 l6 57 -130 0 -130
0 0 260 0 260 -80 0 -80 0 0 -340z"/>
<path d="M6365 6601 c-72 -18 -122 -59 -152 -126 -15 -34 -18 -78 -21 -292
l-4 -253 81 0 81 0 0 80 0 80 90 0 90 0 0 -80 0 -80 81 0 81 0 -4 253 c-3 284
-9 311 -81 374 -51 45 -157 64 -242 44z m144 -177 c17 -22 21 -41 21 -105 l0
-79 -90 0 -90 0 0 80 c0 73 3 83 25 105 35 36 105 35 134 -1z"/>
<path d="M6762 6348 c4 -285 7 -300 61 -356 71 -74 245 -83 307 -17 l23 25 22
-24 c60 -65 241 -58 307 11 54 57 58 80 58 363 l0 260 -75 0 -75 0 0 -240 c0
-227 -1 -241 -20 -260 -24 -24 -87 -27 -116 -6 -18 13 -19 30 -22 260 l-3 246
-74 0 -75 0 0 -231 c0 -278 -3 -289 -87 -289 -71 0 -73 7 -73 282 l0 238 -81
0 -81 0 4 -262z"/>
<path d="M7795 6601 c-72 -18 -122 -59 -152 -126 -15 -34 -18 -78 -21 -292
l-4 -253 81 0 81 0 0 80 0 80 90 0 90 0 0 -80 0 -80 81 0 81 0 -4 253 c-3 251
-3 252 -30 307 -16 32 -41 64 -60 77 -56 37 -158 52 -233 34z m144 -177 c17
-22 21 -41 21 -105 l0 -79 -90 0 -90 0 0 80 c0 73 3 83 25 105 35 36 105 35
134 -1z"/>
<path d="M8365 6601 c-72 -18 -122 -59 -152 -126 -15 -34 -18 -78 -21 -292
l-4 -253 81 0 81 0 0 235 0 236 25 24 c35 36 105 35 134 -1 20 -25 21 -39 21
-260 l0 -234 81 0 81 0 -4 253 c-3 251 -3 252 -30 307 -16 32 -41 64 -60 77
-56 37 -158 52 -233 34z"/>
<path d="M9000 6270 l0 -340 80 0 80 0 0 340 0 340 -80 0 -80 0 0 -340z"/>
<path d="M9405 6601 c-72 -18 -122 -59 -152 -126 -15 -34 -18 -78 -21 -292
l-4 -253 81 0 81 0 0 235 0 236 25 24 c35 36 105 35 134 -1 20 -25 21 -39 21
-260 l0 -234 81 0 81 0 -4 253 c-3 251 -3 252 -30 307 -16 32 -41 64 -60 77
-56 37 -158 52 -233 34z"/>
<path d="M9800 6270 l0 -342 133 4 c161 6 224 26 285 92 55 59 76 128 76 246
0 125 -21 188 -83 250 -65 65 -116 81 -278 87 l-133 6 0 -343z m278 152 c42
-31 62 -79 62 -154 0 -105 -46 -165 -134 -175 l-46 -6 0 183 0 183 44 -5 c24
-3 58 -15 74 -26z"/>
<path d="M10587 6600 c-124 -32 -186 -107 -208 -255 -21 -143 16 -283 93 -349
50 -43 113 -61 214 -61 189 1 284 113 284 335 0 215 -89 326 -271 335 -41 2
-91 0 -112 -5z m177 -181 c58 -50 71 -177 29 -267 -20 -41 -59 -62 -118 -62
-96 0 -144 59 -145 177 0 124 47 183 147 183 44 0 58 -5 87 -31z"/>
<path d="M11225 6601 c-72 -18 -122 -59 -152 -126 -15 -34 -18 -78 -21 -292
l-4 -253 81 0 81 0 0 235 0 236 25 24 c35 36 105 35 134 -1 20 -25 21 -39 21
-260 l0 -234 81 0 81 0 -4 253 c-3 284 -9 311 -81 374 -51 45 -157 64 -242 44z"/>
<path d="M11620 6270 l0 -340 200 0 c228 0 203 -12 214 103 l6 57 -130 0 -130
0 0 50 0 50 105 0 105 0 0 80 0 80 -105 0 -105 0 0 50 0 50 130 0 130 0 -6 58
c-11 114 14 102 -214 102 l-200 0 0 -340z"/>
<path d="M12260 6601 c-97 -30 -133 -84 -134 -201 0 -134 57 -196 191 -206 37
-3 78 -7 90 -10 27 -5 39 -43 24 -73 -11 -19 -22 -21 -159 -23 l-147 -3 3 -40
c1 -22 5 -57 8 -77 l6 -38 146 0 c197 1 243 18 283 105 21 46 24 130 8 190
-23 80 -103 125 -227 125 -54 0 -72 12 -72 50 0 45 14 50 152 50 l128 0 0 43
c0 23 -3 59 -6 80 l-7 37 -131 -1 c-72 0 -142 -4 -156 -8z"/>
<path d="M12660 6270 l0 -340 80 0 80 0 0 340 0 340 -80 0 -80 0 0 -340z"/>
<path d="M13065 6601 c-72 -18 -122 -59 -152 -126 -15 -34 -18 -78 -21 -292
l-4 -253 81 0 81 0 0 80 0 80 90 0 90 0 0 -80 0 -80 81 0 81 0 -4 253 c-3 284
-9 311 -81 374 -51 45 -157 64 -242 44z m144 -177 c17 -22 21 -41 21 -105 l0
-79 -90 0 -90 0 0 80 c0 73 3 83 25 105 35 36 105 35 134 -1z"/>
<path d="M13840 6601 c-97 -30 -133 -84 -134 -201 0 -134 57 -196 191 -206 37
-3 78 -7 90 -10 27 -5 39 -43 24 -73 -11 -19 -22 -21 -159 -23 l-147 -3 3 -40
c1 -22 5 -57 8 -77 l6 -38 146 0 c197 1 243 18 283 105 12 26 19 63 19 105 0
144 -74 209 -236 210 -56 0 -74 12 -74 50 0 45 14 50 152 50 l128 0 0 43 c0
23 -3 59 -6 80 l-7 37 -131 -1 c-72 0 -142 -4 -156 -8z"/>
<path d="M14240 6270 l0 -340 200 0 c228 0 203 -12 214 103 l6 57 -130 0 -130
0 0 50 0 50 105 0 105 0 0 80 0 80 -105 0 -105 0 0 50 0 50 130 0 130 0 -6 58
c-11 114 14 102 -214 102 l-200 0 0 -340z"/>
<path d="M14887 6596 c-26 -7 -62 -26 -79 -42 -59 -56 -62 -73 -66 -361 l-4
-263 81 0 81 0 0 240 c0 227 1 241 20 260 28 28 90 27 116 -1 17 -19 19 -41
22 -260 l3 -239 74 0 74 0 3 246 c3 230 4 247 22 260 29 21 92 18 116 -6 19
-19 20 -33 20 -260 l0 -240 75 0 75 0 0 263 c0 294 -5 320 -72 370 -83 63
-261 57 -302 -10 -6 -12 -13 -10 -36 12 -46 44 -131 55 -223 31z"/>
<path d="M15600 6270 l0 -340 200 0 c228 0 203 -12 214 103 l6 57 -130 0 -130
0 0 50 0 50 105 0 105 0 0 80 0 80 -105 0 -105 0 0 50 0 50 130 0 130 0 -6 58
c-11 114 14 102 -214 102 l-200 0 0 -340z"/>
<path d="M16230 6601 c-97 -30 -133 -84 -134 -201 0 -134 57 -196 191 -206 37
-3 78 -7 90 -10 27 -5 39 -43 24 -73 -11 -19 -22 -21 -159 -23 l-147 -3 3 -40
c1 -22 5 -57 8 -77 l6 -38 146 0 c197 1 243 18 283 105 12 26 19 63 19 105 0
144 -74 209 -236 210 -56 0 -74 12 -74 50 0 45 14 50 152 50 l128 0 0 43 c0
23 -3 59 -6 80 l-7 37 -131 -1 c-72 0 -142 -4 -156 -8z"/>
<path d="M16640 6530 l0 -80 80 0 80 0 0 -260 0 -260 75 0 75 0 0 260 0 260
80 0 80 0 0 80 0 80 -235 0 -235 0 0 -80z"/>
<path d="M17355 6601 c-72 -18 -122 -59 -152 -126 -15 -34 -18 -78 -21 -292
l-4 -253 81 0 81 0 0 80 0 80 90 0 90 0 0 -80 0 -80 81 0 81 0 -4 253 c-3 251
-3 252 -30 307 -16 32 -41 64 -60 77 -56 37 -158 52 -233 34z m144 -177 c17
-22 21 -41 21 -105 l0 -79 -90 0 -90 0 0 80 c0 73 3 83 25 105 35 36 105 35
134 -1z"/>
</g>
</svg>
